<svg width="18" height="19" viewBox="0 0 18 19" fill="none" xmlns="http://www.w3.org/2000/svg">
<g clip-path="url(#clip0_4902_29)">
<rect width="18" height="18" transform="translate(0 0.5)" fill="white"/>
<path d="M8.95076 17.7198C8.04931 16.3722 7.28636 15.2514 6.64015 14.3022C5.49365 12.618 4.7146 11.4736 4.18135 10.5592C3.77366 9.86011 3.5365 9.33832 3.39651 8.85084C3.25805 8.36867 3.20459 7.88504 3.20459 7.25C3.20459 3.91436 5.82088 1.25 9.00004 1.25C12.1792 1.25 14.7955 3.91436 14.7955 7.25C14.7955 7.88504 14.742 8.36867 14.6036 8.85084C14.4636 9.33832 14.2264 9.86011 13.8187 10.5592C13.2855 11.4736 12.5064 12.618 11.3599 14.3022C10.7138 15.2513 9.95099 16.3719 9.04969 17.7193C9.03874 17.7355 9.02946 17.7415 9.02407 17.7443C9.01735 17.7478 9.00915 17.75 9.00004 17.75C8.99093 17.75 8.98274 17.7478 8.97601 17.7443C8.97057 17.7415 8.96116 17.7353 8.95008 17.7188L8.32736 18.1368L8.95076 17.7198ZM9.00004 10.8125C10.9421 10.8125 12.4773 9.1956 12.4773 7.25C12.4773 5.3044 10.9421 3.6875 9.00004 3.6875C7.05801 3.6875 5.52277 5.3044 5.52277 7.25C5.52277 9.1956 7.05801 10.8125 9.00004 10.8125Z" stroke="#8D8D8D" stroke-width="1.5"/>
</g>
<defs>
<clipPath id="clip0_4902_29">
<rect width="18" height="18" fill="white" transform="translate(0 0.5)"/>
</clipPath>
</defs>
</svg>
