<svg width="25" height="18" viewBox="0 0 25 18" fill="none" xmlns="http://www.w3.org/2000/svg">
<g clip-path="url(#clip0_4902_72)">
<path d="M5.31548 11.5659L1.27162 15.4545C1.1105 15.1565 1.00922 14.7624 1.00922 14.3395V1.59854L8.33824 8.65867M16.2298 9.06719L23.9999 1.57451V14.3395C23.9999 14.7528 23.9078 15.1325 23.7467 15.4304L18.0994 10.0318M1.30201 1.40101L1.27347 1.38226M8.33824 8.65867L10.3961 10.6436C10.5066 10.7493 10.6171 10.8406 10.7275 10.9175C11.8462 11.7826 13.1491 11.7826 14.2631 10.9127C14.369 10.8358 14.4795 10.7397 14.5808 10.6436L16.6524 8.64906" stroke="#8D8D8D" stroke-width="1.5" stroke-miterlimit="10" stroke-linecap="round" stroke-linejoin="round"/>
<path d="M18.0638 9.99731L23.747 15.4301C23.5536 15.8002 23.2544 16.0405 22.9229 16.0405H2.08676C1.7645 16.0405 1.46987 15.8146 1.27191 15.4541L6.83221 10.1069" stroke="#8D8D8D" stroke-width="1.5" stroke-miterlimit="10" stroke-linecap="round" stroke-linejoin="round"/>
<path d="M18.8563 1.04102H23.2114C23.483 1.04102 23.7454 1.20923 23.9342 1.47837C23.9572 1.50721 23.9802 1.54085 23.9986 1.57449L16.6512 8.64904L14.5795 10.6436C14.4783 10.7397 14.3678 10.8358 14.2619 10.9127C13.1478 11.7826 11.845 11.7826 10.7263 10.9175C10.6158 10.8406 10.5053 10.7493 10.3948 10.6436L8.33698 8.65866L1.00796 1.59852C1.02637 1.56968 1.04939 1.53604 1.07241 1.5024C1.26576 1.21404 1.52817 1.04102 1.8136 1.04102H5.7175M2.14644 16.0408C2.14644 16.0408 0.879514 16.1081 1.00934 13.8853" stroke="#8D8D8D" stroke-width="1.5" stroke-miterlimit="10" stroke-linecap="round" stroke-linejoin="round"/>
<path d="M5.37347 1.04102H20.1052" stroke="#8D8D8D" stroke-width="1.35849"/>
</g>
<defs>
<clipPath id="clip0_4902_72">
<rect width="25" height="17" fill="white" transform="translate(0 0.0410156)"/>
</clipPath>
</defs>
</svg>
