<svg width="22" height="24" viewBox="0 0 22 24" fill="none" xmlns="http://www.w3.org/2000/svg">
<path d="M4.33331 5.99994V3.59993C4.33333 2.90498 4.55684 2.22489 4.97687 1.64176C5.39689 1.05862 5.99547 0.597355 6.70036 0.313651C7.40525 0.029947 8.18631 -0.0640731 8.94926 0.04294C9.71221 0.149953 10.4244 0.453425 11 0.916724C11.5755 0.453425 12.2877 0.149953 13.0507 0.04294C13.8137 -0.0640731 14.5947 0.029947 15.2996 0.313651C16.0045 0.597355 16.6031 1.05862 17.0231 1.64176C17.4431 2.22489 17.6666 2.90498 17.6666 3.59993V5.99994H19.6666C20.1971 5.99994 20.7058 6.18958 21.0809 6.52715C21.4559 6.86472 21.6666 7.32256 21.6666 7.79995V19.806C21.6666 20.9183 21.1757 21.9851 20.3018 22.7716C19.4278 23.5581 18.2426 24 17.0066 24H5.66665C4.25216 24 2.8956 23.4943 1.89541 22.5941C0.895216 21.6939 0.333313 20.473 0.333313 19.2V7.79995C0.333313 7.32256 0.544026 6.86472 0.919099 6.52715C1.29417 6.18958 1.80288 5.99994 2.33331 5.99994H4.33331ZM13.18 22.2C12.6361 21.4978 12.3451 20.662 12.3466 19.806V7.79995H2.33331V19.2C2.33331 19.594 2.41953 19.9841 2.58705 20.348C2.75456 20.712 3.0001 21.0427 3.30962 21.3213C3.61915 21.5999 3.98662 21.8209 4.39104 21.9716C4.79545 22.1224 5.22891 22.2 5.66665 22.2H13.18ZM10.3333 5.99994V3.59993C10.3333 3.12254 10.1226 2.6647 9.74753 2.32714C9.37245 1.98957 8.86375 1.79993 8.33331 1.79993C7.80288 1.79993 7.29417 1.98957 6.9191 2.32714C6.54403 2.6647 6.33331 3.12254 6.33331 3.59993V5.99994H10.3333ZM12.3333 5.99994H15.6666V3.59993C15.6667 3.22941 15.5397 2.86791 15.303 2.56477C15.0662 2.26162 14.7313 2.03161 14.344 1.90613C13.9566 1.78064 13.5357 1.7658 13.1386 1.86363C12.7415 1.96145 12.3877 2.16718 12.1253 2.45273C12.26 2.81273 12.3333 3.19913 12.3333 3.59993V5.99994ZM14.3466 19.806C14.3466 20.4409 14.6269 21.0498 15.1257 21.4988C15.6246 21.9478 16.3012 22.2 17.0066 22.2C17.7121 22.2 18.3887 21.9478 18.8876 21.4988C19.3864 21.0498 19.6666 20.4409 19.6666 19.806V7.79995H14.3466V19.806Z" fill="#8D8D8D"/>
</svg>
