<svg width="18" height="18" viewBox="0 0 18 18" fill="none" xmlns="http://www.w3.org/2000/svg">
<path d="M11.9079 13.5367L12.2719 13.5821L12.5312 13.3227L14.0793 11.774C14.1845 11.6706 14.3174 11.5998 14.4618 11.5701L14.3111 10.8355L14.4618 11.5701C14.6064 11.5405 14.7564 11.5533 14.8939 11.607C14.8944 11.6072 14.8949 11.6074 14.8955 11.6076L16.7768 12.359C16.7773 12.3593 16.7779 12.3595 16.7785 12.3597C16.9164 12.4161 17.0348 12.512 17.1187 12.6355C17.2024 12.7586 17.2481 12.9037 17.25 13.0527V16.5062C17.2489 16.6069 17.2276 16.7064 17.1873 16.7987C17.1467 16.8917 17.0878 16.9756 17.014 17.0452C16.9402 17.1148 16.8531 17.1687 16.758 17.2037C16.664 17.2384 16.5641 17.2538 16.464 17.2492C10.0927 16.8514 6.32079 13.9728 4.05779 10.7066C1.77183 7.40727 1.00028 3.67009 0.754398 1.58339C0.743006 1.47847 0.753806 1.37231 0.786103 1.27182C0.818603 1.17071 0.872128 1.07764 0.94314 0.998746C1.01415 0.91985 1.10104 0.856908 1.19807 0.814045C1.29511 0.771182 1.4001 0.749363 1.50615 0.750014L1.50615 0.750028H1.51075H4.8516C4.99979 0.750652 5.14445 0.795516 5.26705 0.878921C5.38992 0.962502 5.48502 1.08098 5.54009 1.21914L5.54022 1.21947L6.29445 3.10926L6.29443 3.10927L6.29648 3.11431C6.35177 3.24996 6.36588 3.39891 6.33704 3.54255C6.30824 3.68599 6.2379 3.81773 6.13484 3.92139C6.13469 3.92154 6.13454 3.92169 6.1344 3.92183L4.58539 5.47146L4.31877 5.73819L4.37388 6.11127L5.11583 6.00168C4.37388 6.11127 4.37393 6.11164 4.37399 6.11203L4.37413 6.11293L4.37446 6.11515L4.3754 6.12125L4.37839 6.13997C4.38089 6.1553 4.38445 6.1763 4.38918 6.20261C4.39865 6.25521 4.41286 6.32915 4.43289 6.42159C4.47291 6.60632 4.53634 6.86589 4.63189 7.17749C4.82241 7.7988 5.1439 8.63768 5.66977 9.50543C6.72909 11.2535 8.62962 13.1277 11.9079 13.5367Z" stroke="#8D8D8D" stroke-width="1.5"/>
</svg>
