<svg width="26" height="26" viewBox="0 0 26 26" fill="none" xmlns="http://www.w3.org/2000/svg">
<path d="M11.1188 22.2365C13.5858 22.236 15.9817 21.4102 17.9249 19.8905L24.0347 26L26 24.0349L19.8902 17.9254C21.4107 15.982 22.2371 13.5857 22.2377 11.1182C22.2377 4.98792 17.2495 0 11.1188 0C4.98819 0 0 4.98792 0 11.1182C0 17.2486 4.98819 22.2365 11.1188 22.2365ZM11.1188 2.77956C15.7179 2.77956 19.458 6.51946 19.458 11.1182C19.458 15.717 15.7179 19.4569 11.1188 19.4569C6.51981 19.4569 2.77971 15.717 2.77971 11.1182C2.77971 6.51946 6.51981 2.77956 11.1188 2.77956Z" fill="#E11C4B"/>
</svg>
