<svg width="18" height="19" viewBox="0 0 18 19" fill="none" xmlns="http://www.w3.org/2000/svg">
<path d="M17.325 4.10225V1.22C17.325 0.82175 17.0033 0.5 16.605 0.5H1.39501C0.996763 0.5 0.675013 0.82175 0.675013 1.22V4.10225C0.299264 4.12475 1.39408e-05 4.4375 1.39408e-05 4.82V7.78325C-0.00142697 8.32785 0.108845 8.86696 0.324014 9.36725C0.420764 9.59675 0.540013 9.81275 0.675013 10.0175V17.78C0.675013 18.176 0.996763 18.5 1.39501 18.5H16.605C17.0033 18.5 17.325 18.1783 17.325 17.78V10.0175C17.4621 9.81223 17.5796 9.59452 17.676 9.36725C17.8897 8.8655 18 8.33225 18 7.78325V4.82C18 4.4375 17.7008 4.12475 17.325 4.10225ZM2.29501 2.12H15.705V4.1H2.29501V2.12ZM10.44 16.8822H7.56001V14.54H10.44V16.8822ZM15.705 16.8822H11.88V13.82C11.88 13.4218 11.5583 13.1 11.16 13.1H6.84001C6.44176 13.1 6.12001 13.4218 6.12001 13.82V16.8822H2.29501V11.4328C2.36026 11.4643 2.42776 11.4958 2.49751 11.5228C2.99926 11.7343 3.53251 11.84 4.08151 11.84C4.63051 11.84 5.16151 11.7343 5.66551 11.5228C5.97601 11.3923 6.26851 11.2257 6.53626 11.0255C6.54076 11.0233 6.54526 11.0233 6.54976 11.0255C6.81834 11.2266 7.11082 11.3936 7.42051 11.5228C7.92226 11.7343 8.45551 11.84 9.00451 11.84C9.55351 11.84 10.0845 11.7343 10.5885 11.5228C10.899 11.3923 11.1915 11.2257 11.4593 11.0255C11.4638 11.0233 11.4683 11.0233 11.4728 11.0255C11.7413 11.2266 12.0338 11.3936 12.3435 11.5228C12.8453 11.7343 13.3785 11.84 13.9275 11.84C14.4765 11.84 15.0075 11.7343 15.5115 11.5228C15.579 11.4935 15.6465 11.4643 15.714 11.4328V16.8822H15.705ZM16.38 7.78325C16.38 9.12875 15.2775 10.22 13.9208 10.22C13.0028 10.22 12.2018 9.72275 11.7788 8.98475C11.7135 8.87225 11.5965 8.8025 11.466 8.8025H11.4525C11.3243 8.8025 11.205 8.87225 11.1398 8.98475C10.9239 9.36121 10.6122 9.67381 10.2364 9.89077C9.86054 10.1077 9.43396 10.2213 9.00001 10.22C8.08426 10.22 7.28551 9.725 6.86251 8.98925C6.79501 8.8745 6.67351 8.8025 6.54076 8.8025C6.40801 8.8025 6.28426 8.8745 6.21901 8.98925C6.00188 9.36427 5.6898 9.67548 5.31416 9.89154C4.93853 10.1076 4.5126 10.2209 4.07926 10.22C2.72251 10.22 1.62001 9.12875 1.62001 7.78325V5.73125C1.62001 5.7245 1.62451 5.72 1.63126 5.72H16.3688C16.3755 5.72 16.38 5.7245 16.38 5.73125V7.78325Z" fill="#8D8D8D"/>
</svg>
