<svg width="40" height="41" viewBox="0 0 40 41" fill="none" xmlns="http://www.w3.org/2000/svg">
<circle cx="20" cy="20.041" r="19.5" fill="white" stroke="#8D8D8D"/>
<path d="M29.579 14.896C29.719 14.431 29.579 14.09 28.917 14.09H26.724C26.166 14.09 25.911 14.385 25.771 14.709C25.771 14.709 24.656 17.428 23.076 19.191C22.566 19.704 22.333 19.866 22.055 19.866C21.916 19.866 21.714 19.704 21.714 19.239V14.896C21.714 14.338 21.553 14.09 21.088 14.09H17.642C17.294 14.09 17.084 14.348 17.084 14.594C17.084 15.122 17.874 15.244 17.955 16.732V19.96C17.955 20.667 17.828 20.796 17.548 20.796C16.805 20.796 14.997 18.067 13.924 14.943C13.715 14.336 13.504 14.091 12.944 14.091H10.752C10.125 14.091 10 14.386 10 14.71C10 15.292 10.743 18.172 13.461 21.981C15.273 24.582 17.824 25.992 20.148 25.992C21.541 25.992 21.713 25.679 21.713 25.139V23.173C21.713 22.547 21.846 22.421 22.287 22.421C22.611 22.421 23.169 22.585 24.47 23.838C25.956 25.324 26.202 25.991 27.037 25.991H29.229C29.855 25.991 30.168 25.678 29.988 25.06C29.791 24.445 29.081 23.55 28.139 22.491C27.627 21.887 26.862 21.237 26.629 20.912C26.304 20.493 26.398 20.308 26.629 19.936C26.63 19.937 29.301 16.175 29.579 14.896Z" fill="#8D8D8D"/>
</svg>
