<svg width="40" height="41" viewBox="0 0 40 41" fill="none" xmlns="http://www.w3.org/2000/svg">
<circle cx="20" cy="20.041" r="19.5" fill="white" stroke="#8D8D8D"/>
<path d="M30.0617 14.9809C29.9422 14.5356 29.7078 14.1296 29.382 13.8034C29.0563 13.4773 28.6505 13.2424 28.2055 13.1223C26.5672 12.6816 20 12.6816 20 12.6816C20 12.6816 13.4328 12.6816 11.7945 13.1199C11.3493 13.2396 10.9433 13.4744 10.6175 13.8006C10.2917 14.1269 10.0574 14.5331 9.93828 14.9785C9.5 16.6191 9.5 20.041 9.5 20.041C9.5 20.041 9.5 23.4629 9.93828 25.1012C10.1797 26.0059 10.8922 26.7184 11.7945 26.9598C13.4328 27.4004 20 27.4004 20 27.4004C20 27.4004 26.5672 27.4004 28.2055 26.9598C29.1102 26.7184 29.8203 26.0059 30.0617 25.1012C30.5 23.4629 30.5 20.041 30.5 20.041C30.5 20.041 30.5 16.6191 30.0617 14.9809ZM17.9141 23.1816V16.9004L23.3516 20.0176L17.9141 23.1816Z" fill="#8D8D8D"/>
</svg>
